<?xml version="1.0" standalone="no"?>
<!DOCTYPE svg PUBLIC "-//W3C//DTD SVG 20010904//EN"
 "http://www.w3.org/TR/2001/REC-SVG-20010904/DTD/svg10.dtd">
<svg version="1.0" xmlns="http://www.w3.org/2000/svg"
 width="512.000000pt" height="512.000000pt" viewBox="0 0 512.000000 512.000000"
 preserveAspectRatio="xMidYMid meet">

<g transform="translate(0.000000,512.000000) scale(0.100000,-0.100000)"
fill="#000000" stroke="none">
<path d="M2355 4540 c-602 -94 -1070 -532 -1197 -1123 -29 -135 -31 -411 -4
-562 18 -101 88 -330 110 -361 11 -14 66 46 430 472 229 269 439 515 467 546
88 101 220 164 366 175 155 11 300 -39 414 -145 129 -118 185 -251 177 -421
-3 -64 -12 -116 -26 -156 -14 -37 -17 -54 -8 -45 7 8 174 204 371 435 197 231
364 425 371 431 11 9 5 24 -31 82 -144 235 -335 409 -583 532 -54 26 -121 55
-150 65 -53 17 -54 17 -80 -6 l-27 -24 24 27 23 27 -38 10 c-131 35 -190 42
-364 46 -102 2 -212 0 -245 -5z m605 -113 c0 -2 -15 -16 -32 -33 l-33 -29 29
33 c28 30 36 37 36 29z m-60 -70 c0 -2 -15 -16 -32 -33 l-33 -29 29 33 c28 30
36 37 36 29z m-60 -70 c0 -2 -15 -16 -32 -33 l-33 -29 29 33 c28 30 36 37 36
29z m-137 -158 c-43 -51 -95 -110 -117 -133 -21 -23 -14 -12 16 24 86 105 170
200 175 200 2 0 -31 -41 -74 -91z m-153 -182 c0 -2 -15 -16 -32 -33 l-33 -29
29 33 c28 30 36 37 36 29z m-60 -70 c0 -2 -15 -16 -32 -33 l-33 -29 29 33 c28
30 36 37 36 29z m-60 -70 c0 -2 -15 -16 -32 -33 l-33 -29 29 33 c28 30 36 37
36 29z m-60 -70 c0 -2 -15 -16 -32 -33 l-33 -29 29 33 c28 30 36 37 36 29z
m-77 -92 c-10 -13 -25 -27 -33 -30 -8 -4 -2 8 14 24 36 37 43 40 19 6z"/>
</g>
</svg>
