<?xml version="1.0" standalone="no"?>
<!DOCTYPE svg PUBLIC "-//W3C//DTD SVG 20010904//EN"
 "http://www.w3.org/TR/2001/REC-SVG-20010904/DTD/svg10.dtd">
<svg version="1.0" xmlns="http://www.w3.org/2000/svg"
 width="920.000000pt" height="512.000000pt" viewBox="0 0 920.000000 512.000000"
 preserveAspectRatio="xMidYMid meet">

<g transform="translate(0.000000,512.000000) scale(0.100000,-0.100000)"
fill="#000000" stroke="none">
<path d="M4446 4784 c-193 -43 -350 -138 -465 -282 -177 -220 -227 -513 -133
-769 27 -71 742 -1483 752 -1483 8 0 715 1390 745 1465 62 157 70 341 20 510
-76 259 -280 464 -540 540 -115 34 -276 42 -379 19z m255 -318 c94 -20 164
-59 236 -132 189 -188 188 -481 -1 -670 -190 -190 -482 -189 -672 0 -189 189
-189 482 -1 670 121 122 271 167 438 132z"/>
<path d="M2522 1760 l-480 -1440 2558 0 2558 0 -480 1440 -480 1440 -373 0
-373 0 -81 -155 c-45 -85 -81 -157 -81 -160 0 -3 153 -5 339 -5 l339 0 174
-520 173 -519 -41 -43 c-75 -80 -75 -70 -3 -146 35 -37 76 -83 90 -102 21 -28
29 -32 40 -23 12 10 39 -62 164 -438 l150 -449 -2115 0 -2116 0 160 479 c140
419 163 478 177 470 14 -7 31 14 98 120 45 70 81 132 81 137 0 5 -20 23 -45
39 -25 17 -43 35 -41 40 2 6 74 223 160 483 l158 472 339 0 c186 0 339 3 339
6 0 3 -36 75 -81 160 l-81 154 -373 0 -373 0 -480 -1440z"/>
<path d="M5305 2309 c-105 -15 -276 -61 -272 -73 2 -6 24 -74 47 -151 24 -77
44 -141 45 -142 1 -2 33 6 71 16 38 11 100 24 138 30 37 5 70 12 73 15 10 9
-20 316 -31 315 -6 -1 -38 -5 -71 -10z"/>
<path d="M5756 2281 c-10 -31 -57 -293 -54 -296 2 -1 26 -8 53 -14 28 -7 86
-28 129 -47 44 -19 80 -33 81 -31 10 14 145 281 143 282 -26 22 -180 80 -274
104 -67 17 -74 17 -78 2z"/>
<path d="M4555 2028 c-77 -44 -141 -81 -143 -83 -2 -2 142 -262 151 -271 7 -8
277 146 277 157 0 8 -140 280 -143 279 -1 -1 -65 -37 -142 -82z"/>
<path d="M4025 1774 c-55 -19 -120 -39 -143 -45 -30 -7 -42 -15 -39 -24 3 -7
18 -75 33 -151 15 -77 28 -140 29 -142 5 -6 169 39 256 70 l87 30 -59 145
c-32 80 -60 147 -61 148 -2 1 -48 -13 -103 -31z"/>
<path d="M3221 1580 c-23 -84 -41 -153 -39 -155 18 -16 344 -63 356 -51 3 3 7
75 10 160 l5 154 -49 6 c-65 8 -171 24 -209 31 l-31 7 -43 -152z"/>
</g>
</svg>
