<?xml version="1.0" standalone="no"?>
<!DOCTYPE svg PUBLIC "-//W3C//DTD SVG 20010904//EN"
 "http://www.w3.org/TR/2001/REC-SVG-20010904/DTD/svg10.dtd">
<svg version="1.0" xmlns="http://www.w3.org/2000/svg"
 width="1300.000000pt" height="1300.000000pt" viewBox="0 0 1300.000000 1300.000000"
 preserveAspectRatio="xMidYMid meet">

<g transform="translate(0.000000,1300.000000) scale(0.100000,-0.100000)"
fill="#000000" stroke="none">
<path d="M3665 10238 c-48 -28 -50 -49 -18 -153 19 -63 39 -85 73 -85 35 0 73
36 67 64 -3 11 -11 47 -18 79 -7 31 -17 57 -21 57 -4 0 -8 6 -8 13 0 8 -11 19
-25 25 -30 14 -25 14 -50 0z"/>
<path d="M3902 10051 c-94 -24 -126 -72 -81 -120 25 -26 53 -26 149 3 76 23
84 29 84 71 0 66 -37 77 -152 46z"/>
<path d="M3547 9954 c-61 -20 -80 -30 -89 -50 -15 -33 6 -75 42 -84 42 -10
179 29 197 56 20 32 9 78 -23 93 -32 14 -34 14 -127 -15z"/>
<path d="M9297 9912 c-22 -24 -22 -75 1 -94 9 -8 50 -34 91 -57 l73 -43 -88
-52 c-88 -51 -89 -52 -89 -90 0 -31 6 -43 27 -59 27 -20 29 -20 65 -3 96 46
275 159 285 181 15 34 -8 73 -62 102 -25 14 -86 50 -137 79 -97 58 -139 66
-166 36z"/>
<path d="M3748 9880 c-9 -6 -19 -22 -22 -38 -8 -37 28 -170 51 -188 42 -32
103 -5 103 47 -1 45 -38 160 -56 174 -22 17 -52 18 -76 5z"/>
<path d="M5200 8976 c-3 -2 -42 -7 -87 -10 -235 -19 -466 -128 -636 -302 -63
-64 -189 -233 -182 -244 4 -6 1 -9 -5 -8 -15 4 -91 -133 -84 -152 3 -8 2 -11
-2 -7 -11 10 -36 -31 -28 -46 4 -6 4 -9 -1 -5 -11 10 -47 -60 -39 -74 4 -7 3
-8 -4 -4 -7 4 -12 2 -12 -4 0 -5 -9 -29 -19 -53 -74 -161 -123 -285 -123 -305
0 -17 -4 -22 -15 -18 -11 5 -13 2 -9 -9 3 -9 2 -14 -3 -11 -4 3 -17 -1 -27 -9
-33 -25 -53 -17 -134 60 -87 81 -142 106 -229 104 -46 -1 -46 -1 13 -10 33 -5
65 -14 70 -20 8 -9 4 -10 -16 -7 -16 3 -28 1 -28 -3 0 -5 18 -9 40 -9 23 0 40
5 40 11 0 8 5 7 15 -1 18 -15 2 -32 -22 -23 -7 3 -13 0 -13 -6 0 -14 47 -15
55 -1 11 18 45 -13 45 -41 0 -33 22 -53 50 -44 13 4 22 1 26 -8 3 -9 16 -18
30 -21 13 -4 24 -11 24 -16 0 -6 7 -10 15 -10 9 0 15 -9 15 -21 0 -19 4 -21
33 -15 23 4 28 3 17 -4 -13 -8 -12 -10 3 -10 10 0 22 10 27 23 6 16 9 17 9 5
1 -20 -45 -58 -68 -57 -13 1 -13 2 2 6 9 2 17 9 17 14 0 14 -38 11 -43 -3 -2
-7 -8 -9 -13 -5 -5 4 -2 12 6 17 23 15 -12 13 -45 -2 -19 -9 -28 -9 -37 0 -9
9 -4 12 23 13 29 0 31 2 14 10 -16 7 -13 8 13 4 17 -2 32 0 32 5 0 19 -56 15
-76 -5 -7 -7 -28 -12 -45 -10 -25 2 -33 7 -34 23 -1 11 -9 28 -19 38 -15 14
-19 15 -27 3 -8 -12 -11 -12 -18 1 -28 45 -39 52 -87 56 -46 3 -42 0 14 -12
12 -2 51 -34 87 -70 36 -36 65 -61 65 -55 0 6 7 11 15 11 8 0 15 -4 15 -10 0
-5 -5 -10 -12 -10 -12 0 21 -29 35 -30 15 0 6 19 -10 23 -10 3 2 3 27 0 25 -3
58 -12 74 -19 26 -12 32 -12 60 6 32 19 68 55 99 99 15 23 15 26 0 43 -11 12
-14 28 -10 53 3 19 1 37 -4 40 -25 16 -5 54 69 128 42 42 82 76 87 75 9 -1 19
16 58 97 103 218 269 439 396 528 26 18 48 34 51 37 15 16 96 57 180 90 80 31
104 46 147 90 44 46 54 51 67 40 21 -17 20 -23 -6 -51 l-23 -24 1375 0 1375 0
95 -24 c52 -12 137 -43 187 -66 l93 -44 35 35 c32 31 51 39 73 32 4 -2 6 -6 5
-10 -2 -4 4 -5 12 -2 8 4 15 1 15 -5 0 -6 -12 -11 -27 -11 -16 0 -39 -12 -56
-27 l-29 -28 6 25 c6 20 5 22 -4 8 -14 -23 -6 -38 40 -72 21 -16 78 -71 127
-123 81 -87 125 -149 185 -261 21 -42 23 -43 38 -25 8 11 34 24 58 30 41 11
43 10 37 -10 -5 -18 -4 -19 4 -7 7 10 11 11 11 3 0 -7 5 -13 12 -13 9 0 9 3 0
12 -7 7 -12 17 -12 24 0 12 -59 114 -113 194 -57 84 -156 197 -209 238 -29 22
-68 54 -86 71 -71 66 -205 127 -372 169 l-105 26 -1325 3 c-729 2 -1328 2
-1330 -1z m-1053 -898 c-3 -8 -6 -5 -6 6 -1 11 2 17 5 13 3 -3 4 -12 1 -19z
m-7 -33 c0 -5 -5 -3 -10 5 -5 8 -10 20 -10 25 0 6 5 3 10 -5 5 -8 10 -19 10
-25z m-30 -5 c0 -5 -5 -10 -11 -10 -5 0 -7 5 -4 10 3 6 8 10 11 10 2 0 4 -4 4
-10z m40 -34 c0 -2 -7 -7 -16 -10 -8 -3 -12 -2 -9 4 6 10 25 14 25 6z m-52
-61 c-23 -22 -26 -23 -32 -9 -4 10 -2 22 4 28 8 8 9 5 4 -9 -6 -19 -5 -19 17
2 32 31 38 19 7 -12z m-41 -37 c-3 -8 -6 -5 -6 6 -1 11 2 17 5 13 3 -3 4 -12
1 -19z m-247 -170 c0 -12 -14 -10 -28 4 -19 19 -14 29 8 16 11 -7 20 -16 20
-20z m199 -16 c0 -11 -2 -12 -6 -4 -2 6 -9 10 -14 7 -5 -4 -6 1 -3 9 8 20 24
11 23 -12z m33 -4 c-9 -9 -12 -7 -12 12 0 19 3 21 12 12 9 -9 9 -15 0 -24z
m28 -12 c0 -8 -7 -16 -15 -20 -13 -4 -14 -2 -5 14 13 23 20 26 20 6z m-37 -54
c-6 -13 -8 -13 -14 4 -4 10 -8 26 -8 34 0 12 3 11 14 -3 7 -11 11 -26 8 -35z
m-296 23 c8 -9 13 -19 10 -22 -6 -5 -37 21 -37 31 0 10 11 6 27 -9z"/>
<path d="M5156 8729 l-37 -40 26 -25 26 -24 1332 0 c1479 0 1382 4 1509 -69
50 -29 68 -36 64 -23 -4 11 4 24 24 37 16 11 27 21 25 24 -3 2 0 10 6 18 9 10
6 18 -12 33 -36 29 -158 88 -209 99 -30 7 -505 11 -1381 11 l-1337 0 -36 -41z"/>
<path d="M5088 8753 c-10 -2 -18 -9 -18 -14 0 -13 12 -11 34 6 20 15 16 17
-16 8z"/>
<path d="M4972 8712 c-9 -6 -6 -14 13 -32 13 -13 28 -38 31 -57 3 -18 8 -33
11 -33 4 0 66 30 72 36 6 6 -89 94 -102 94 -7 0 -18 -4 -25 -8z"/>
<path d="M4883 8629 c-18 -16 -33 -34 -33 -38 0 -4 11 -18 24 -30 l24 -23 31
28 c35 31 39 54 13 77 -24 22 -21 22 -59 -14z"/>
<path d="M8156 8613 c2 -6 -15 -29 -36 -51 l-39 -39 65 -69 c36 -38 74 -82 85
-99 10 -16 19 -26 19 -22 0 12 -21 49 -36 65 -16 15 -7 45 12 38 7 -3 16 0 20
6 5 7 2 8 -7 4 -8 -4 -2 2 14 14 15 12 27 27 27 33 0 15 -94 117 -108 117 -6
0 -12 3 -15 8 -2 4 -2 2 -1 -5z"/>
<path d="M4737 8552 l-27 -28 33 -2 c33 -2 82 -45 72 -63 -11 -17 12 -9 29 10
19 21 13 46 -10 37 -8 -3 -13 -2 -11 2 2 8 -48 72 -55 72 -3 0 -16 -13 -31
-28z"/>
<path d="M8280 8460 c0 -5 5 -10 10 -10 6 0 10 5 10 10 0 6 -4 10 -10 10 -5 0
-10 -4 -10 -10z"/>
<path d="M4665 8415 c-28 -32 -46 -43 -60 -40 -13 3 -25 -3 -32 -14 -10 -16
-8 -21 16 -31 37 -15 55 -50 47 -92 -6 -28 -2 -25 28 25 19 32 33 64 29 73 -3
8 8 28 26 46 17 17 31 42 31 55 0 38 -39 28 -85 -22z"/>
<path d="M8321 8430 c14 -31 19 -36 19 -24 0 6 -7 19 -16 30 -14 18 -14 18 -3
-6z"/>
<path d="M8320 8381 c0 -6 4 -13 10 -16 6 -3 7 1 4 9 -7 18 -14 21 -14 7z"/>
<path d="M8347 8378 c6 -7 13 -25 17 -40 3 -16 11 -28 16 -28 12 0 60 -105 60
-131 0 -14 -12 -22 -45 -31 -25 -7 -45 -15 -45 -19 0 -4 11 -32 25 -64 l26
-57 49 51 c45 47 49 53 39 78 -6 15 -14 30 -19 33 -4 3 -23 36 -41 73 -65 131
-74 147 -82 147 -5 0 -5 -6 0 -12z"/>
<path d="M8290 8356 c0 -2 7 -6 15 -10 8 -3 15 -1 15 4 0 6 -7 10 -15 10 -8 0
-15 -2 -15 -4z"/>
<path d="M8266 8324 c-10 -25 1 -29 14 -5 6 12 7 21 1 21 -5 0 -12 -7 -15 -16z"/>
<path d="M4534 8282 c-19 -14 -45 -63 -38 -74 4 -6 3 -8 -3 -5 -11 7 -27 -28
-23 -52 1 -7 -3 -10 -9 -6 -6 3 -11 0 -11 -7 0 -8 22 -35 49 -62 46 -45 49
-47 56 -27 4 14 1 31 -9 46 -21 32 -20 37 9 100 13 30 22 61 19 69 -7 18 -27
27 -40 18z"/>
<path d="M8290 8258 c0 -9 5 -20 10 -23 13 -8 13 5 0 25 -8 13 -10 13 -10 -2z"/>
<path d="M8678 8233 c7 -3 16 -2 19 1 4 3 -2 6 -13 5 -11 0 -14 -3 -6 -6z"/>
<path d="M8748 8209 c-21 -22 -24 -36 -5 -20 13 10 27 6 27 -8 0 -15 -59 -73
-68 -67 -27 17 -18 -24 34 -146 107 -252 139 -310 200 -361 90 -76 182 -56
304 66 57 57 72 66 114 72 111 17 344 -64 401 -139 31 -40 31 -47 3 -73 -33
-30 -76 -50 -158 -72 -72 -20 -293 -50 -380 -52 -63 -1 -96 -16 -110 -49 -16
-38 -6 -53 76 -126 272 -238 456 -616 545 -1119 26 -152 38 -565 20 -726 -38
-338 -126 -595 -248 -725 -26 -27 -46 -52 -45 -56 1 -5 -3 -8 -8 -8 -18 0 -11
-45 10 -68 20 -21 29 -22 203 -23 100 -1 192 0 205 1 13 1 30 -4 38 -10 20
-17 17 -57 -5 -69 -12 -7 -286 -11 -776 -11 l-758 0 -31 -35 c-18 -19 -37 -35
-42 -35 -5 0 -24 16 -43 37 -23 25 -42 37 -62 37 -37 1 -36 -4 6 -40 51 -42
71 -74 54 -85 -8 -5 357 -9 833 -9 948 0 893 -4 943 71 60 91 33 212 -58 261
-25 14 -59 17 -159 18 -106 0 -128 3 -128 15 0 8 15 43 34 77 178 324 236 939
141 1473 -22 126 -74 320 -118 440 -27 75 -128 279 -174 355 -62 100 -74 114
-221 265 -70 72 -97 102 -61 67 36 -34 67 -60 70 -58 3 3 52 12 110 20 211 30
340 79 414 156 39 39 40 43 40 108 0 60 -3 72 -33 114 -73 100 -236 184 -405
209 -141 20 -225 -7 -327 -104 -105 -100 -126 -95 -198 48 -16 33 -50 110 -75
170 -57 138 -76 176 -97 195 -9 8 -15 21 -13 28 6 16 2 14 -19 -9z m1112
-2082 c0 -2 -19 -21 -42 -42 l-43 -40 40 43 c36 39 45 47 45 39z m-1570 -1817
c0 -5 -2 -10 -4 -10 -3 0 -8 5 -11 10 -3 6 -1 10 4 10 6 0 11 -4 11 -10z"/>
<path d="M8310 8211 c0 -6 4 -13 10 -16 6 -3 7 1 4 9 -7 18 -14 21 -14 7z"/>
<path d="M8707 8203 c-6 -11 12 -57 19 -50 3 3 1 14 -5 25 -6 11 -7 22 -4 26
3 3 4 6 0 6 -3 0 -8 -3 -10 -7z"/>
<path d="M4615 8189 c-4 -6 -5 -12 -2 -15 2 -3 7 2 10 11 7 17 1 20 -8 4z"/>
<path d="M8678 8171 c9 -16 18 -28 20 -27 5 6 -21 56 -29 56 -5 0 0 -13 9 -29z"/>
<path d="M8640 8186 c0 -3 9 -20 21 -38 17 -27 19 -28 13 -8 -6 22 -34 59 -34
46z"/>
<path d="M4400 8031 c-11 -22 -20 -46 -20 -52 0 -6 18 -31 40 -55 42 -46 43
-61 8 -100 -10 -11 -15 -24 -11 -29 5 -4 3 -5 -3 -2 -6 3 -46 -30 -90 -74
l-79 -80 23 -20 c24 -18 64 -19 2208 -19 l2184 0 21 21 c29 29 22 59 -45 202
-31 65 -56 122 -56 127 0 21 -24 8 -68 -35 l-46 -46 27 -55 c15 -30 27 -61 27
-69 0 -13 -253 -15 -2055 -17 -1636 -2 -2056 0 -2060 10 -2 6 -1 12 4 12 13 0
93 188 85 201 -4 7 -3 10 4 5 6 -3 14 -1 18 5 4 7 -15 32 -44 60 l-51 49 -21
-39z m-101 -388 c-12 -15 -12 -16 6 -9 15 5 17 4 8 -5 -6 -6 -19 -9 -29 -5
-16 6 -16 8 2 21 25 19 29 19 13 -2z"/>
<path d="M8507 8055 c-4 -8 -1 -17 4 -21 6 -3 9 -17 6 -30 -5 -26 7 -33 17 -9
6 18 -2 45 -15 45 -4 0 -6 7 -3 15 4 8 4 15 1 15 -3 0 -7 -7 -10 -15z"/>
<path d="M4142 7937 c-64 -64 -69 -77 -52 -122 16 -43 43 -16 84 85 21 50 37
93 35 95 -2 2 -32 -24 -67 -58z m-8 -52 c-21 -24 -40 -42 -42 -40 -6 5 60 83
71 84 4 1 -9 -19 -29 -44z m-8 -61 c-4 -9 -9 -15 -11 -12 -3 3 -3 13 1 22 4 9
9 15 11 12 3 -3 3 -13 -1 -22z"/>
<path d="M8542 7974 c-7 -8 -8 -14 -3 -14 10 0 25 19 20 25 -2 1 -10 -3 -17
-11z"/>
<path d="M8440 7944 c0 -6 7 -19 16 -30 14 -18 14 -18 3 6 -14 31 -19 36 -19
24z"/>
<path d="M4345 7910 c-8 -16 -16 -33 -16 -37 -1 -5 -10 -25 -20 -45 -25 -50
-24 -56 7 -27 14 13 44 28 67 34 52 13 59 36 21 76 -35 36 -40 36 -59 -1z"/>
<path d="M3355 7851 l-49 -17 59 1 c79 3 79 3 61 20 -8 8 -16 14 -18 14 -2 -1
-25 -9 -53 -18z m58 -8 c-7 -2 -19 -2 -25 0 -7 3 -2 5 12 5 14 0 19 -2 13 -5z"/>
<path d="M3253 7813 c-18 -9 -33 -24 -33 -32 1 -14 2 -14 13 0 7 9 26 23 42
32 39 21 20 21 -22 0z"/>
<path d="M3350 7825 c0 -6 69 -35 84 -35 6 0 5 4 -3 9 -11 7 -11 10 0 15 8 3
3 4 -10 2 -13 -3 -34 -1 -47 4 -13 5 -24 7 -24 5z"/>
<path d="M3520 7820 c0 -6 28 -10 68 -9 52 1 60 3 37 9 -45 11 -105 11 -105 0z"/>
<path d="M3513 7793 c15 -2 27 -9 27 -14 0 -11 37 -12 44 0 6 9 -44 22 -78 20
-15 -2 -13 -3 7 -6z"/>
<path d="M3600 7790 c0 -13 11 -13 30 0 12 8 11 10 -7 10 -13 0 -23 -4 -23
-10z"/>
<path d="M3646 7781 c-11 -4 -15 -10 -10 -13 5 -4 18 0 29 8 20 15 12 17 -19
5z"/>
<path d="M4086 7781 c-4 -6 -1 -18 7 -26 13 -12 16 -12 21 7 3 12 3 24 1 27
-3 2 -5 -2 -5 -10 0 -12 -2 -12 -9 0 -6 9 -11 10 -15 2z"/>
<path d="M3168 7764 c-16 -8 -28 -17 -28 -19 0 -10 16 -4 40 15 30 23 25 25
-12 4z"/>
<path d="M3453 7773 c9 -2 25 -2 35 0 9 3 1 5 -18 5 -19 0 -27 -2 -17 -5z"/>
<path d="M3430 7751 c-44 -13 -91 -33 -86 -38 2 -3 19 2 38 11 18 8 62 19 98
24 56 8 59 10 20 10 -25 0 -56 -3 -70 -7z"/>
<path d="M3107 7724 c-3 -3 -3 -12 0 -20 4 -10 0 -12 -13 -7 -18 7 -18 6 -1
-11 10 -11 15 -26 12 -34 -3 -9 -2 -13 2 -8 4 4 8 25 9 47 0 42 0 42 -9 33z"/>
<path d="M3230 7720 c-8 -5 -2 -10 19 -15 17 -4 29 -11 25 -16 -3 -5 -1 -9 5
-9 5 0 12 3 15 8 7 12 -50 41 -64 32z"/>
<path d="M3840 7680 c0 -5 7 -10 16 -10 8 0 12 5 9 10 -3 6 -10 10 -16 10 -5
0 -9 -4 -9 -10z"/>
<path d="M3060 7650 c0 -5 5 -10 11 -10 5 0 7 5 4 10 -3 6 -8 10 -11 10 -2 0
-4 -4 -4 -10z"/>
<path d="M3160 7601 c-5 -11 -10 -30 -9 -43 1 -18 3 -17 8 8 4 17 11 36 15 42
4 7 5 12 2 12 -3 0 -10 -9 -16 -19z"/>
<path d="M3860 7575 c35 -20 57 -20 40 0 -7 8 -24 15 -39 15 l-26 -1 25 -14z"/>
<path d="M3060 7466 c0 -2 8 -10 18 -17 15 -13 16 -12 3 4 -13 16 -21 21 -21
13z"/>
<path d="M3345 7446 c22 -8 54 -15 70 -15 20 -1 26 -4 17 -10 -11 -6 -10 -10
4 -15 9 -3 19 -4 22 -1 3 3 -1 5 -9 6 -8 1 -3 4 11 8 20 6 13 10 -40 19 -36 7
-76 14 -90 17 -14 3 -7 -2 15 -9z"/>
<path d="M3105 7430 c-3 -5 -1 -10 4 -10 6 0 11 5 11 10 0 6 -2 10 -4 10 -3 0
-8 -4 -11 -10z"/>
<path d="M3338 7423 c7 -3 16 -2 19 1 4 3 -2 6 -13 5 -11 0 -14 -3 -6 -6z"/>
<path d="M3538 7413 c12 -2 32 -2 45 0 12 2 2 4 -23 4 -25 0 -35 -2 -22 -4z"/>
<path d="M3628 7403 c12 -2 30 -2 40 0 9 3 -1 5 -23 4 -22 0 -30 -2 -17 -4z"/>
<path d="M3765 7377 c0 -12 3 -26 6 -32 5 -9 5 -19 0 -41 0 -4 -7 -1 -14 5
-10 8 -21 3 -46 -23 -18 -19 -29 -36 -23 -40 5 -3 21 8 37 24 15 15 33 26 40
24 7 -3 16 -1 20 5 3 6 11 11 17 11 6 0 1 -12 -13 -27 l-24 -27 25 16 c14 8
25 24 25 34 0 11 4 25 8 32 5 6 4 12 -1 12 -6 0 -12 -7 -16 -15 -3 -8 -11 -15
-17 -15 -8 0 -8 4 -1 13 6 6 11 17 12 22 1 6 5 9 9 8 4 -1 8 5 8 13 0 10 -4
11 -11 4 -15 -15 -30 -12 -18 3 8 10 7 13 -6 14 -12 1 -18 -6 -17 -20z m19
-23 c3 -8 2 -12 -4 -9 -6 3 -10 10 -10 16 0 14 7 11 14 -7z m-34 -47 c0 -2
-15 -16 -32 -33 l-33 -29 29 33 c28 30 36 37 36 29z"/>
<path d="M3238 7353 c7 -3 16 -2 19 1 4 3 -2 6 -13 5 -11 0 -14 -3 -6 -6z"/>
<path d="M3283 7343 c9 -2 23 -2 30 0 6 3 -1 5 -18 5 -16 0 -22 -2 -12 -5z"/>
<path d="M3388 7313 c7 -3 16 -2 19 1 4 3 -2 6 -13 5 -11 0 -14 -3 -6 -6z"/>
<path d="M3694 7298 l-19 -23 23 19 c21 18 27 26 19 26 -2 0 -12 -10 -23 -22z"/>
<path d="M3510 7300 c-8 -5 -10 -10 -5 -10 6 0 17 5 25 10 8 5 11 10 5 10 -5
0 -17 -5 -25 -10z"/>
<path d="M3722 7250 c-18 -17 -28 -30 -22 -30 5 0 10 -5 10 -11 0 -6 -7 -9
-15 -6 -17 7 -30 -9 -14 -18 13 -9 61 34 53 47 -3 5 2 18 12 29 25 28 14 23
-24 -11z"/>
<path d="M3568 7239 c-16 -15 -28 -31 -28 -35 0 -4 14 7 31 24 18 18 30 34 28
36 -2 2 -16 -9 -31 -25z"/>
<path d="M3635 7210 c-15 -16 -32 -27 -37 -24 -4 3 -8 1 -8 -4 0 -6 6 -12 14
-15 16 -6 82 58 68 67 -5 3 -22 -8 -37 -24z m35 17 c0 -2 -15 -16 -32 -33
l-33 -29 29 33 c28 30 36 37 36 29z"/>
<path d="M3551 7126 c-18 -19 -29 -36 -23 -39 5 -4 23 9 41 27 18 19 29 36 23
39 -5 4 -23 -9 -41 -27z m39 21 c0 -2 -15 -16 -32 -33 l-33 -29 29 33 c28 30
36 37 36 29z"/>
<path d="M3469 7118 c-12 -23 -12 -23 10 -4 23 21 26 26 11 26 -5 0 -15 -10
-21 -22z"/>
<path d="M3471 7046 c-18 -19 -29 -36 -23 -39 5 -4 23 9 41 27 18 19 29 36 23
39 -5 4 -23 -9 -41 -27z m39 21 c0 -2 -15 -16 -32 -33 l-33 -29 29 33 c28 30
36 37 36 29z"/>
<path d="M4310 7054 l-85 -13 120 4 c75 3 111 1 95 -4 -18 -7 1 -9 64 -10 116
-1 106 -11 -13 -13 -50 -1 -91 -5 -91 -10 0 -4 -12 -8 -27 -8 -16 0 -35 -5
-43 -10 -24 -16 24 -13 64 4 33 14 86 11 86 -5 0 -4 19 -10 43 -12 23 -2 -12
-5 -78 -7 l-120 -4 175 -6 175 -6 -130 -3 c-71 -1 -152 -6 -180 -10 -28 -4 41
-6 155 -5 113 1 196 -2 185 -7 -16 -6 -11 -8 20 -10 22 -2 56 -2 75 -2 28 1
31 0 15 -7 -18 -8 -17 -9 7 -9 14 -1 35 -4 45 -7 13 -4 14 -3 5 4 -11 7 -11
10 3 15 9 4 14 3 11 -2 -8 -12 11 -24 59 -40 67 -21 147 -54 205 -83 30 -16
60 -28 66 -28 7 0 14 -4 16 -8 6 -16 109 -72 120 -66 6 4 8 3 4 -4 -11 -18 32
-24 62 -8 64 33 123 36 707 36 l585 1 65 67 64 67 -165 3 c-91 1 -237 1 -326
0 l-160 -3 55 -57 c30 -31 59 -53 63 -50 4 4 4 1 0 -6 -6 -9 -11 -10 -20 -3
-7 6 -16 9 -19 6 -4 -3 -5 -3 -3 0 5 9 -48 63 -57 58 -4 -3 -2 -12 5 -21 9
-12 6 -11 -10 2 -15 14 -19 23 -12 31 7 9 3 17 -14 29 -22 14 -63 16 -313 15
-278 0 -333 -4 -437 -29 -43 -11 -51 -10 -75 7 -51 38 -194 106 -223 106 -16
0 -24 3 -18 7 12 7 -64 40 -92 40 -9 0 -19 4 -23 9 -3 5 -47 19 -98 29 -50 11
-117 26 -147 32 -79 17 -339 20 -440 4z m410 -13 l45 -8 -40 -2 c-22 -1 -49
-3 -60 -5 -12 -2 -14 -1 -5 3 8 3 -30 9 -85 12 l-100 5 100 1 c55 1 120 -2
145 -6z m149 -32 c12 -7 10 -8 -9 -2 -14 4 -59 7 -100 7 -65 -1 -69 0 -30 6
52 9 116 4 139 -11z m-305 -7 c2 -4 -12 -6 -32 -4 -56 5 -62 10 -15 11 23 1
44 -3 47 -7z m136 -2 c16 -5 2 -6 -35 -3 -33 3 -62 7 -64 9 -8 7 74 2 99 -6z
m-60 -20 c0 -5 -12 -10 -27 -9 -25 0 -26 1 -8 9 27 12 35 12 35 0z m80 -10 c0
-5 -9 -10 -21 -10 -11 0 -17 5 -14 10 3 6 13 10 21 10 8 0 14 -4 14 -10z m355
-20 c13 -6 15 -9 5 -9 -8 0 -22 4 -30 9 -18 12 -2 12 25 0z m-12 -21 c7 0 1
-5 -12 -10 -13 -5 -26 -7 -29 -4 -3 3 1 5 9 5 12 0 11 2 -1 11 -12 9 -12 10 3
5 10 -3 24 -6 30 -7z m-83 -19 c20 -6 17 -7 -17 -7 -24 1 -43 5 -43 9 0 10 26
9 60 -2z m304 -59 c4 -5 -3 -7 -14 -4 -23 6 -26 13 -6 13 8 0 17 -4 20 -9z
m-109 -21 c13 -6 15 -9 5 -9 -8 0 -22 4 -30 9 -18 12 -2 12 25 0z m-20 -20 c3
-5 1 -10 -4 -10 -6 0 -11 5 -11 10 0 6 2 10 4 10 3 0 8 -4 11 -10z m251 -25
c-8 -8 -18 -15 -22 -15 -3 0 -1 7 6 15 7 8 17 15 22 15 5 0 3 -7 -6 -15z m-99
-31 c-3 -3 -12 -4 -19 -1 -8 3 -5 6 6 6 11 1 17 -2 13 -5z m-32 -14 c3 -6 -1
-7 -9 -4 -18 7 -21 14 -7 14 6 0 13 -4 16 -10z m228 3 c-7 -2 -19 -2 -25 0 -7
3 -2 5 12 5 14 0 19 -2 13 -5z m280 -10 c-35 -2 -91 -2 -125 0 -35 2 -7 3 62
3 69 0 97 -1 63 -3z m-443 -23 c0 -5 -2 -10 -4 -10 -3 0 -8 5 -11 10 -3 6 -1
10 4 10 6 0 11 -4 11 -10z"/>
<path d="M3405 7030 c-3 -5 -1 -10 4 -10 6 0 11 5 11 10 0 6 -2 10 -4 10 -3 0
-8 -4 -11 -10z"/>
<path d="M4214 7021 c40 -21 57 -23 34 -3 -7 6 -27 13 -43 17 -27 5 -26 4 9
-14z"/>
<path d="M4378 7033 c7 -3 16 -2 19 1 4 3 -2 6 -13 5 -11 0 -14 -3 -6 -6z"/>
<path d="M4100 7014 l-45 -14 45 6 c25 3 56 5 70 5 23 0 23 1 5 9 -24 10 -19
11 -75 -6z"/>
<path d="M4289 7023 c27 -4 31 -7 20 -15 -11 -8 -10 -9 4 -4 10 3 28 7 40 7
33 2 -30 17 -68 16 -27 0 -27 -1 4 -4z"/>
<path d="M3417 6995 c-4 -8 -3 -16 1 -19 4 -3 9 4 9 15 2 23 -3 25 -10 4z"/>
<path d="M3369 6973 c-13 -16 -12 -17 4 -4 9 7 17 15 17 17 0 8 -8 3 -21 -13z"/>
<path d="M3970 6974 c-25 -15 -25 -15 8 -8 21 4 39 1 49 -8 14 -11 16 -11 12
1 -8 23 -43 30 -69 15z"/>
<path d="M3919 6958 c-6 -21 -5 -37 2 -32 5 3 7 9 4 14 -3 4 1 11 7 13 10 4
10 6 1 6 -7 1 -13 0 -14 -1z"/>
<path d="M3993 6944 c0 -8 6 -14 14 -14 7 0 13 4 13 9 0 5 -6 11 -13 14 -8 3
-14 -1 -14 -9z"/>
<path d="M3878 6933 c7 -3 16 -2 19 1 4 3 -2 6 -13 5 -11 0 -14 -3 -6 -6z"/>
<path d="M3835 6920 c-3 -6 1 -7 9 -4 18 7 21 14 7 14 -6 0 -13 -4 -16 -10z"/>
<path d="M4118 6913 c7 -3 16 -2 19 1 4 3 -2 6 -13 5 -11 0 -14 -3 -6 -6z"/>
<path d="M4223 6913 c9 -2 23 -2 30 0 6 3 -1 5 -18 5 -16 0 -22 -2 -12 -5z"/>
<path d="M3790 6895 c-14 -8 -20 -14 -14 -15 5 0 19 7 30 15 24 18 16 19 -16
0z"/>
<path d="M4065 6900 c-13 -6 -15 -9 -5 -9 8 0 22 4 30 9 18 12 2 12 -25 0z"/>
<path d="M4121 6899 c-18 -6 -31 -12 -29 -15 8 -7 68 8 68 17 0 5 -1 9 -2 8
-2 0 -18 -5 -37 -10z"/>
<path d="M3446 6865 c-9 -26 -7 -32 5 -12 6 10 9 21 6 23 -2 3 -7 -2 -11 -11z"/>
<path d="M3740 6870 c-9 -6 -10 -10 -3 -10 6 0 15 5 18 10 8 12 4 12 -15 0z"/>
<path d="M3336 6858 c3 -5 10 -6 15 -3 13 9 11 12 -6 12 -8 0 -12 -4 -9 -9z"/>
<path d="M6806 6783 l-66 -68 358 -5 357 -5 66 -32 c74 -37 136 -93 171 -156
22 -40 23 -52 23 -232 0 -182 -1 -192 -24 -238 -36 -69 -92 -122 -169 -158
-62 -30 -77 -33 -201 -38 l-134 -6 63 -62 c34 -35 68 -63 74 -64 41 -3 127 4
156 12 81 24 120 41 114 51 -5 7 -2 8 5 3 20 -12 114 59 163 123 48 62 72 113
88 182 13 59 13 313 0 381 -30 159 -163 294 -349 356 -36 12 -112 17 -338 20
l-291 5 -66 -69z"/>
<path d="M3915 6830 c3 -6 -1 -10 -9 -10 -8 0 -17 -4 -21 -10 -3 -5 7 -5 25 1
34 12 36 15 14 23 -8 3 -12 2 -9 -4z"/>
<path d="M3660 6820 c-9 -6 -10 -10 -3 -10 6 0 15 5 18 10 8 12 4 12 -15 0z"/>
<path d="M3275 6799 c-4 -6 -5 -12 -2 -15 2 -3 7 2 10 11 7 17 1 20 -8 4z"/>
<path d="M3397 6771 c-4 -17 -3 -21 5 -13 5 5 8 16 6 23 -3 8 -7 3 -11 -10z"/>
<path d="M3700 6710 c-8 -5 -10 -10 -5 -10 6 0 17 5 25 10 8 5 11 10 5 10 -5
0 -17 -5 -25 -10z"/>
<path d="M3610 6645 c-11 -13 -10 -14 4 -9 9 3 16 10 16 15 0 13 -6 11 -20 -6z"/>
<path d="M4390 6650 c11 -7 -7 -10 -60 -11 l-75 -2 91 -7 c51 -4 110 -11 133
-15 27 -4 41 -3 41 4 0 7 -24 11 -62 11 -38 0 -58 4 -50 9 11 7 10 10 -3 15
-24 9 -32 7 -15 -4z"/>
<path d="M4448 6653 c12 -2 30 -2 40 0 9 3 -1 5 -23 4 -22 0 -30 -2 -17 -4z"/>
<path d="M4545 6650 c-17 -6 -15 -8 15 -13 19 -3 78 -8 130 -10 70 -4 86 -3
60 4 -19 5 -70 10 -114 10 -48 1 -73 5 -65 10 17 11 1 10 -26 -1z"/>
<path d="M3405 6629 c-4 -6 -5 -12 -2 -15 2 -3 7 2 10 11 7 17 1 20 -8 4z"/>
<path d="M4190 6620 c-11 -7 -5 -8 19 -3 27 5 32 3 26 -7 -5 -9 -4 -11 3 -6 7
4 12 11 12 17 0 12 -41 11 -60 -1z"/>
<path d="M9035 6624 c-433 -32 -655 -63 -855 -121 -78 -22 -163 -61 -177 -80
-23 -30 -14 -66 33 -143 80 -130 192 -208 379 -262 218 -62 300 -73 545 -73
220 0 227 1 310 29 254 84 369 255 345 510 -9 97 -24 116 -96 127 -62 9 -409
19 -484 13z m447 -161 c10 -166 -51 -277 -185 -339 -166 -75 -473 -73 -787 5
-163 41 -240 79 -313 153 -32 33 -55 64 -50 68 12 13 177 57 273 74 102 18
402 55 485 59 33 2 176 4 318 5 l257 2 2 -27z"/>
<path d="M4318 6613 c12 -2 32 -2 45 0 12 2 2 4 -23 4 -25 0 -35 -2 -22 -4z"/>
<path d="M4561 6616 c2 -2 26 -6 53 -9 30 -3 43 -1 35 4 -13 8 -97 13 -88 5z"/>
<path d="M4695 6610 c17 -4 39 -8 50 -8 16 0 15 2 -5 8 -14 4 -36 8 -50 8 -22
0 -22 -1 5 -8z"/>
<path d="M4810 6610 c8 -5 22 -9 30 -9 10 0 8 3 -5 9 -27 12 -43 12 -25 0z"/>
<path d="M4413 6603 c9 -2 23 -2 30 0 6 3 -1 5 -18 5 -16 0 -22 -2 -12 -5z"/>
<path d="M4328 6593 c7 -3 16 -2 19 1 4 3 -2 6 -13 5 -11 0 -14 -3 -6 -6z"/>
<path d="M4568 6583 c7 -3 16 -2 19 1 4 3 -2 6 -13 5 -11 0 -14 -3 -6 -6z"/>
<path d="M4903 6577 c15 -6 27 -14 27 -19 0 -11 -7 -10 -31 2 -12 7 -19 7 -19
1 0 -10 25 -16 95 -24 20 -3 14 -5 -17 -6 -44 -1 -82 -21 -41 -21 11 0 25 -6
32 -12 11 -11 13 -10 8 3 -4 13 3 18 29 22 41 7 64 0 60 -16 -1 -7 -1 -9 1 -4
7 11 33 9 33 -3 0 -5 5 -10 11 -10 22 0 -4 20 -58 45 -31 14 -63 23 -70 20 -8
-2 -12 -1 -9 4 3 5 -8 14 -26 20 -40 14 -62 12 -25 -2z"/>
<path d="M4413 6563 c9 -2 23 -2 30 0 6 3 -1 5 -18 5 -16 0 -22 -2 -12 -5z"/>
<path d="M4513 6563 c9 -2 25 -2 35 0 9 3 1 5 -18 5 -19 0 -27 -2 -17 -5z"/>
<path d="M3975 6550 c-16 -7 -17 -9 -3 -9 9 -1 20 4 23 9 7 11 7 11 -20 0z"/>
<path d="M4393 6538 c15 -10 154 -8 187 1 14 4 -25 7 -87 7 -61 -1 -106 -4
-100 -8z"/>
<path d="M4888 6533 c7 -3 16 -2 19 1 4 3 -2 6 -13 5 -11 0 -14 -3 -6 -6z"/>
<path d="M4215 6510 c-27 -7 -27 -8 -5 -8 14 0 36 4 50 8 20 6 21 8 5 8 -11 0
-33 -4 -50 -8z"/>
<path d="M4700 6510 c14 -4 36 -8 50 -8 22 0 22 1 -5 8 -16 4 -39 8 -50 8 -16
0 -15 -2 5 -8z"/>
<path d="M4790 6511 c12 -9 13 -11 1 -11 -8 0 -12 -2 -10 -4 2 -3 20 -1 39 4
22 5 27 8 13 9 -12 1 -30 4 -40 7 -15 5 -15 4 -3 -5z"/>
<path d="M4883 6493 c9 -2 17 -9 17 -14 0 -5 -12 -6 -27 -3 -37 9 -24 -4 15
-15 24 -7 32 -6 37 6 7 20 5 22 -31 27 -16 2 -21 1 -11 -1z"/>
<path d="M5053 6483 c-27 -10 -11 -21 27 -19 26 1 41 -3 45 -12 3 -8 12 -11
20 -8 24 9 66 -11 59 -29 -5 -11 -2 -14 10 -9 21 8 13 19 -36 50 -38 24 -98
37 -125 27z"/>
<path d="M3815 6470 c-3 -5 -1 -10 4 -10 6 0 11 5 11 10 0 6 -2 10 -4 10 -3 0
-8 -4 -11 -10z"/>
<path d="M4943 6455 c-10 -10 -9 -14 3 -19 23 -9 42 -8 28 2 -6 4 -13 12 -15
19 -3 8 -7 7 -16 -2z"/>
<path d="M5070 6450 c12 -10 11 -11 -7 -7 -13 3 -26 1 -29 -4 -3 -5 -14 -9
-25 -9 -10 0 -19 -3 -19 -7 0 -12 133 -78 149 -75 7 2 10 -1 6 -8 -7 -12 21
-39 42 -40 7 0 11 12 10 28 -2 24 -6 27 -37 27 -22 0 -43 8 -59 23 -13 12 -34
22 -46 22 -13 0 -22 6 -22 15 0 17 13 20 21 6 3 -5 19 -14 36 -19 24 -9 30 -8
30 4 0 7 -8 14 -17 14 -15 0 -16 2 -3 10 17 11 14 15 -20 24 -20 6 -22 5 -10
-4z m120 -104 c0 -3 -4 -8 -10 -11 -5 -3 -10 -1 -10 4 0 6 5 11 10 11 6 0 10
-2 10 -4z"/>
<path d="M3955 6420 c-3 -6 1 -7 9 -4 18 7 21 14 7 14 -6 0 -13 -4 -16 -10z"/>
<path d="M5222 6394 c-26 -18 -28 -34 -4 -34 14 0 15 2 2 10 -13 8 -13 10 1
10 19 0 90 -29 73 -30 -12 0 -14 -54 -2 -65 4 -4 16 -4 27 0 l21 6 -20 26
c-11 14 -17 29 -14 34 3 5 -3 12 -13 16 -10 4 -25 15 -34 24 -14 17 -18 17
-37 3z m88 -94 c0 -5 -4 -10 -10 -10 -5 0 -10 5 -10 10 0 6 5 10 10 10 6 0 10
-4 10 -10z"/>
<path d="M5320 6330 c0 -5 9 -14 20 -20 11 -6 17 -16 14 -22 -4 -6 -3 -8 3 -5
5 3 26 -12 46 -33 21 -21 34 -40 30 -42 -4 -3 -3 -3 4 -2 7 2 21 -10 33 -25
28 -40 25 -53 -4 -17 l-24 29 2 -34 c1 -28 6 -34 24 -35 12 -1 22 4 22 10 0 5
8 3 17 -7 10 -9 17 -32 17 -53 0 -32 1 -34 13 -18 14 20 17 41 6 46 -5 2 -21
22 -37 46 -32 47 -167 192 -179 192 -4 0 -7 -4 -7 -10z m145 -190 c3 -5 1 -10
-4 -10 -6 0 -11 5 -11 10 0 6 2 10 4 10 3 0 8 -4 11 -10z"/>
<path d="M10415 6289 c-22 -5 -46 -12 -54 -15 -21 -7 87 -114 115 -114 32 0
80 -44 88 -80 7 -38 -15 -94 -42 -109 -12 -6 -39 -11 -62 -11 -104 0 -138 132
-48 185 l30 17 -51 51 -51 51 -35 -34 c-58 -56 -78 -110 -73 -189 8 -102 62
-172 160 -207 73 -26 139 -15 209 35 78 55 116 163 90 257 -30 110 -163 189
-276 163z m210 -299 c21 -22 37 -40 34 -40 -3 0 -23 18 -44 40 -21 22 -37 40
-34 40 3 0 23 -18 44 -40z"/>
<path d="M5220 6272 c0 -10 26 -34 50 -47 8 -4 2 6 -14 23 -32 34 -36 37 -36
24z"/>
<path d="M5250 6276 c0 -2 7 -9 15 -16 13 -11 14 -10 9 4 -5 14 -24 23 -24 12z"/>
<path d="M5363 6235 c-1 -19 3 -35 8 -35 4 0 6 7 3 15 -4 8 -2 15 4 15 6 0 12
-6 15 -12 2 -7 8 -9 13 -5 4 4 -3 19 -17 33 l-25 25 -1 -36z"/>
<path d="M3540 6249 c0 -5 5 -7 10 -4 6 3 10 8 10 11 0 2 -4 4 -10 4 -5 0 -10
-5 -10 -11z"/>
<path d="M5300 6196 c0 -1 13 -14 28 -29 l28 -27 -1 27 c0 23 -5 28 -27 30
-16 1 -28 1 -28 -1z m50 -16 c0 -5 -2 -10 -4 -10 -3 0 -8 5 -11 10 -3 6 -1 10
4 10 6 0 11 -4 11 -10z"/>
<path d="M3609 6153 c-13 -16 -12 -17 4 -4 16 13 21 21 13 21 -2 0 -10 -8 -17
-17z"/>
<path d="M5380 6109 c0 -12 18 -20 23 -12 2 5 2 2 0 -5 -5 -21 8 -36 18 -21 6
10 9 7 9 -10 0 -14 7 -32 15 -41 8 -9 28 -40 44 -69 28 -52 29 -53 26 -20 -1
19 2 39 7 46 5 7 8 18 5 25 -3 8 -10 0 -17 -17 -11 -25 -14 -27 -18 -11 -2 11
3 25 12 31 18 14 21 35 5 35 -6 0 -13 -9 -16 -20 -3 -11 -10 -20 -15 -20 -5 0
-7 10 -4 23 3 12 3 16 0 10 -3 -7 -10 -13 -14 -13 -11 0 -33 77 -26 88 2 4 -9
7 -25 7 -16 1 -29 -2 -29 -6z"/>
<path d="M5547 6050 c-22 -26 -22 -36 1 -45 16 -6 16 -7 0 -19 -25 -18 -22
-23 12 -22 35 1 37 7 10 31 -22 20 -26 40 -9 50 6 4 9 0 7 -8 -2 -9 5 -22 16
-30 10 -7 20 -24 21 -38 2 -13 6 -37 10 -54 5 -23 4 -26 -4 -15 -8 11 -10 7
-6 -20 4 -27 3 -30 -4 -15 -8 16 -10 17 -10 3 -1 -9 -4 -23 -7 -32 -4 -10 -1
-16 9 -16 8 0 17 6 20 13 3 8 11 3 25 -13 11 -14 24 -22 28 -17 4 4 -3 18 -16
32 -22 23 -22 55 0 55 8 0 7 6 0 20 -6 11 -16 17 -22 14 -8 -5 -9 -1 -5 10 6
15 -16 73 -32 86 -4 3 -11 15 -16 28 l-10 23 -18 -21z m84 -163 c-10 -9 -11
-8 -5 6 3 10 9 15 12 12 3 -3 0 -11 -7 -18z"/>
<path d="M4463 5963 c15 -2 37 -2 50 0 12 2 0 4 -28 4 -27 0 -38 -2 -22 -4z"/>
<path d="M4640 5939 c0 -5 9 -9 20 -9 11 0 20 2 20 4 0 2 -9 6 -20 9 -11 3
-20 1 -20 -4z"/>
<path d="M4719 5909 c14 -5 31 -15 38 -21 7 -6 13 -6 13 -1 0 11 -44 33 -63
32 -7 0 -1 -5 12 -10z"/>
<path d="M4220 5900 c8 -5 20 -10 25 -10 6 0 3 5 -5 10 -8 5 -19 10 -25 10 -5
0 -3 -5 5 -10z"/>
<path d="M4278 5903 c7 -3 16 -2 19 1 4 3 -2 6 -13 5 -11 0 -14 -3 -6 -6z"/>
<path d="M5556 5813 c26 -69 44 -100 44 -72 0 7 -7 23 -15 33 -8 11 -15 28
-15 37 0 23 -21 69 -31 69 -5 0 3 -30 17 -67z"/>
<path d="M5560 5870 c0 -5 5 -10 10 -10 6 0 10 5 10 10 0 6 -4 10 -10 10 -5 0
-10 -4 -10 -10z"/>
<path d="M4818 5853 c6 -2 9 -10 5 -16 -3 -7 -3 -9 2 -5 4 4 14 3 22 -3 7 -6
13 -8 13 -4 0 10 -32 34 -45 34 -5 0 -4 -3 3 -6z"/>
<path d="M4393 5843 c9 -2 23 -2 30 0 6 3 -1 5 -18 5 -16 0 -22 -2 -12 -5z"/>
<path d="M4531 5846 c2 -2 22 -6 44 -9 28 -5 34 -4 20 3 -19 8 -73 14 -64 6z"/>
<path d="M5665 5840 c3 -5 8 -10 11 -10 2 0 4 5 4 10 0 6 -5 10 -11 10 -5 0
-7 -4 -4 -10z"/>
<path d="M5975 5826 c-26 -26 -27 -50 -4 -121 6 -16 13 -91 16 -165 3 -74 7
-137 9 -139 2 -2 4 32 4 77 l0 82 40 0 40 0 0 -40 c0 -29 -4 -40 -15 -40 -11
0 -15 -11 -15 -40 0 -34 3 -40 21 -40 20 0 21 4 19 98 -4 122 -2 167 6 159 3
-3 8 -86 11 -184 3 -98 7 -180 10 -183 3 -3 3 84 1 193 -3 182 -5 200 -23 213
-10 8 -17 15 -14 16 2 1 274 5 604 8 l600 5 -64 63 -64 62 -579 0 -579 0 -24
-24z m264 9 c-3 -2 -58 -5 -122 -6 -105 -2 -141 -9 -104 -22 6 -2 4 -3 -6 -1
-9 1 -21 -5 -27 -14 -5 -10 -10 -12 -10 -5 0 7 8 22 17 33 16 18 30 20 137 20
66 0 117 -2 115 -5z m994 -70 c4 0 7 -4 8 -8 2 -18 -9 -16 -27 5 -11 13 -13
18 -4 12 8 -5 18 -9 23 -9z m-1256 -37 c-3 -7 -5 -2 -5 12 0 14 2 19 5 13 2
-7 2 -19 0 -25z m20 -70 c-2 -13 -4 -3 -4 22 0 25 2 35 4 23 2 -13 2 -33 0
-45z"/>
<path d="M4069 5803 c-13 -16 -12 -17 4 -4 16 13 21 21 13 21 -2 0 -10 -8 -17
-17z"/>
<path d="M4810 5806 c7 -7 13 -7 20 0 6 6 3 10 -10 10 -13 0 -16 -4 -10 -10z"/>
<path d="M4870 5816 c0 -2 8 -10 18 -17 15 -13 16 -12 3 4 -13 16 -21 21 -21
13z"/>
<path d="M5684 5798 c0 -16 4 -28 8 -28 4 0 3 -11 -2 -25 -11 -30 -5 -33 10
-5 8 14 7 28 -4 52 -13 32 -13 33 -12 6z"/>
<path d="M4728 5774 c9 -7 19 -9 22 -6 3 4 9 10 13 13 4 3 -6 6 -23 6 -26 0
-27 -2 -12 -13z"/>
<path d="M4779 5736 c27 -29 33 -32 25 -13 -2 7 -14 19 -27 26 -21 13 -21 12
2 -13z"/>
<path d="M5706 5723 c-6 -14 -5 -15 5 -6 7 7 10 15 7 18 -3 3 -9 -2 -12 -12z"/>
<path d="M5592 5708 c5 -15 28 -23 28 -10 0 5 -7 13 -16 16 -10 4 -14 1 -12
-6z"/>
<path d="M5648 5713 c7 -3 16 -2 19 1 4 3 -2 6 -13 5 -11 0 -14 -3 -6 -6z"/>
<path d="M4860 5701 c0 -6 4 -13 10 -16 6 -3 7 1 4 9 -7 18 -14 21 -14 7z"/>
<path d="M5645 5677 c-49 -49 -44 -63 6 -15 23 22 39 42 35 45 -3 3 -21 -10
-41 -30z"/>
<path d="M5716 5691 c-4 -6 -2 -18 4 -26 8 -9 10 -32 7 -62 -3 -27 -3 -39 0
-29 4 15 7 16 14 5 7 -9 7 4 3 36 -9 66 -18 92 -28 76z"/>
<path d="M4998 5652 c25 -55 39 -69 18 -17 -10 22 -22 45 -27 50 -6 6 -2 -9 9
-33z"/>
<path d="M5685 5661 c-3 -5 -1 -12 5 -16 5 -3 10 1 10 9 0 18 -6 21 -15 7z"/>
<path d="M5712 5630 c0 -14 2 -19 5 -12 2 6 2 18 0 25 -3 6 -5 1 -5 -13z"/>
<path d="M4955 5610 c-3 -5 -1 -10 4 -10 6 0 11 5 11 10 0 6 -2 10 -4 10 -3 0
-8 -4 -11 -10z"/>
<path d="M5645 5610 c-3 -5 1 -10 9 -10 9 0 16 5 16 10 0 6 -4 10 -9 10 -6 0
-13 -4 -16 -10z"/>
<path d="M5686 5593 c10 -40 14 -41 14 -5 0 18 -5 32 -10 32 -6 0 -8 -11 -4
-27z"/>
<path d="M5622 5580 c0 -14 2 -19 5 -12 2 6 2 18 0 25 -3 6 -5 1 -5 -13z"/>
<path d="M5657 5572 c-14 -15 -14 -19 -3 -19 8 0 17 9 19 19 3 10 4 18 3 18
-2 0 -10 -8 -19 -18z"/>
<path d="M5740 5520 c0 -26 5 -40 13 -40 9 0 11 12 9 40 -2 22 -8 40 -13 40
-5 0 -9 -18 -9 -40z"/>
<path d="M5662 5505 c0 -16 2 -22 5 -12 2 9 2 23 0 30 -3 6 -5 -1 -5 -18z"/>
<path d="M5764 5350 c0 -63 1 -89 3 -57 2 31 2 83 0 115 -2 31 -3 5 -3 -58z"/>
<path d="M4951 5434 c0 -11 3 -14 6 -6 3 7 2 16 -1 19 -3 4 -6 -2 -5 -13z"/>
<path d="M5644 5355 c0 -55 1 -76 3 -47 2 29 2 74 0 100 -2 26 -3 2 -3 -53z"/>
<path d="M5982 5303 c-6 -54 -7 -94 -1 -103 6 -10 7 -5 3 15 -3 17 -2 25 3 19
4 -7 9 24 10 72 1 46 1 84 -1 84 -1 0 -8 -39 -14 -87z"/>
<path d="M6087 5356 c-3 -8 0 -43 8 -78 l14 -63 -6 75 c-6 82 -8 88 -16 66z"/>
<path d="M5071 5304 c0 -11 3 -14 6 -6 3 7 2 16 -1 19 -3 4 -6 -2 -5 -13z"/>
<path d="M4936 5243 c-6 -14 -5 -15 5 -6 7 7 10 15 7 18 -3 3 -9 -2 -12 -12z"/>
<path d="M5632 5220 c0 -14 2 -19 5 -12 2 6 2 18 0 25 -3 6 -5 1 -5 -13z"/>
<path d="M6081 5208 c0 -7 4 -22 9 -33 8 -18 9 -17 9 7 1 15 -3 30 -9 33 -5 3
-10 0 -9 -7z"/>
<path d="M5988 5158 c-4 -51 -3 -87 1 -82 6 5 11 104 5 104 -2 0 -5 -10 -6
-22z"/>
<path d="M5712 5140 c0 -14 2 -19 5 -12 2 6 2 18 0 25 -3 6 -5 1 -5 -13z"/>
<path d="M5741 5144 c0 -11 3 -14 6 -6 3 7 2 16 -1 19 -3 4 -6 -2 -5 -13z"/>
<path d="M6081 5134 c0 -11 3 -14 6 -6 3 7 2 16 -1 19 -3 4 -6 -2 -5 -13z"/>
<path d="M5622 5120 c0 -14 2 -19 5 -12 2 6 2 18 0 25 -3 6 -5 1 -5 -13z"/>
<path d="M4890 5110 c0 -5 5 -10 11 -10 5 0 7 5 4 10 -3 6 -8 10 -11 10 -2 0
-4 -4 -4 -10z"/>
<path d="M6758 5103 c-335 -2 -608 -6 -608 -11 0 -4 129 -7 287 -6 159 0 251
-1 206 -3 l-83 -4 0 -39 0 -40 158 -3 c86 -2 -3 -3 -198 -3 -195 1 -301 -1
-235 -4 115 -4 112 -5 -85 -10 -113 -3 256 -7 820 -8 564 -1 1124 -5 1245 -8
l220 -6 40 41 c30 31 47 41 71 41 37 0 94 -44 94 -72 0 -13 8 -18 25 -18 20 0
25 -5 25 -26 0 -19 8 -28 35 -40 19 -8 35 -19 35 -24 0 -14 -40 -32 -57 -26
-14 6 -15 -3 -10 -68 3 -41 10 -83 16 -94 6 -11 7 -22 4 -26 -3 -3 -44 -6 -90
-6 l-84 0 -57 -60 c-32 -33 -62 -60 -68 -60 -5 0 -15 9 -21 19 -11 17 -7 24
27 55 22 20 40 38 40 41 0 3 -51 5 -112 5 -96 -1 -110 -3 -95 -14 21 -16 22
-36 3 -81 l-15 -34 316 -1 c312 0 317 0 340 22 31 29 29 62 -6 94 -46 40 -61
91 -61 200 0 96 0 96 -21 82 -21 -13 -27 -9 -110 76 -49 50 -89 94 -89 97 0
18 -753 27 -1902 22z"/>
<path d="M5961 5084 c0 -11 3 -14 6 -6 3 7 2 16 -1 19 -3 4 -6 -2 -5 -13z"/>
<path d="M6125 5090 c3 -5 8 -10 11 -10 2 0 4 5 4 10 0 6 -5 10 -11 10 -5 0
-7 -4 -4 -10z"/>
<path d="M8730 5086 c0 -2 6 -9 14 -15 10 -9 16 -8 26 4 11 13 8 15 -14 15
-14 0 -26 -2 -26 -4z"/>
<path d="M4980 5059 c0 -5 5 -7 10 -4 6 3 10 8 10 11 0 2 -4 4 -10 4 -5 0 -10
-5 -10 -11z"/>
<path d="M8823 5050 c-13 -10 -23 -22 -23 -27 0 -5 18 -27 40 -48 l40 -39 0
26 c0 15 -4 29 -9 32 -5 3 -7 14 -5 24 3 9 -1 25 -8 34 -12 16 -14 16 -35 -2z"/>
<path d="M5937 5053 c-12 -19 15 -67 38 -70 11 -2 14 0 8 3 -7 3 -13 13 -13
22 0 14 -2 15 -9 3 -7 -11 -10 -5 -13 20 -2 22 -6 29 -11 22z"/>
<path d="M4865 5030 c3 -5 8 -10 11 -10 2 0 4 5 4 10 0 6 -5 10 -11 10 -5 0
-7 -4 -4 -10z"/>
<path d="M4830 5020 c0 -5 5 -10 10 -10 6 0 10 5 10 10 0 6 -4 10 -10 10 -5 0
-10 -4 -10 -10z"/>
<path d="M4796 5012 c-3 -5 1 -9 9 -9 8 0 12 4 9 9 -3 4 -7 8 -9 8 -2 0 -6 -4
-9 -8z"/>
<path d="M5695 5000 c-3 -5 -2 -18 4 -27 7 -14 9 -12 8 10 -2 30 -3 31 -12 17z"/>
<path d="M8565 4970 c-4 -6 8 -10 30 -10 22 0 34 4 30 10 -3 6 -17 10 -30 10
-13 0 -27 -4 -30 -10z"/>
<path d="M5681 4944 c0 -11 3 -14 6 -6 3 7 2 16 -1 19 -3 4 -6 -2 -5 -13z"/>
<path d="M5546 4895 c-9 -26 -7 -32 5 -12 6 10 9 21 6 23 -2 3 -7 -2 -11 -11z"/>
<path d="M5651 4854 c0 -11 3 -14 6 -6 3 7 2 16 -1 19 -3 4 -6 -2 -5 -13z"/>
<path d="M4698 4843 c7 -3 16 -2 19 1 4 3 -2 6 -13 5 -11 0 -14 -3 -6 -6z"/>
<path d="M5510 4829 c-7 -11 -10 -23 -7 -25 2 -2 9 7 15 21 14 30 7 33 -8 4z"/>
<path d="M5400 4649 c0 -5 5 -7 10 -4 6 3 10 8 10 11 0 2 -4 4 -10 4 -5 0 -10
-5 -10 -11z"/>
<path d="M5778 4633 c12 -2 32 -2 45 0 12 2 2 4 -23 4 -25 0 -35 -2 -22 -4z"/>
<path d="M6480 4630 c-159 -4 24 -7 520 -10 l765 -5 -605 -5 c-333 -3 -496 -6
-362 -8 l242 -2 0 -40 0 -40 -402 -3 c-222 -1 44 -3 589 -4 l993 -2 16 24 c20
31 15 69 -10 74 -14 2 -32 -11 -57 -40 -32 -37 -41 -42 -56 -33 -26 16 -23 28
16 69 l33 36 -718 -3 c-396 -2 -829 -5 -964 -8z m1483 -17 c-24 -2 -62 -2 -85
0 -24 2 -5 4 42 4 47 0 66 -2 43 -4z"/>
<path d="M5720 4601 c-12 -17 -17 -31 -11 -31 6 0 11 4 11 9 0 5 7 17 16 26 9
9 14 18 11 21 -3 3 -15 -9 -27 -25z"/>
<path d="M5461 4553 c-7 -8 -11 -16 -8 -19 2 -2 10 2 17 11 17 20 9 27 -9 8z"/>
<path d="M5359 4433 c-13 -16 -12 -17 4 -4 9 7 17 15 17 17 0 8 -8 3 -21 -13z"/>
<path d="M7040 4410 l805 -5 -685 -5 c-423 -3 -561 -6 -362 -7 177 -2 322 -7
322 -12 0 -5 37 -13 83 -17 64 -7 0 -10 -283 -14 l-365 -5 525 -5 525 -5 -445
-5 -445 -5 404 -3 c222 -1 402 -5 398 -8 -3 -3 -221 -9 -484 -13 l-478 -8 631
-1 631 -2 26 29 c25 28 29 30 97 26 60 -3 75 -7 97 -29 23 -23 34 -26 98 -26
l73 0 -67 65 -68 65 -919 -2 -919 -3 805 -5z m877 -6 c-3 -3 -12 -4 -19 -1 -8
3 -5 6 6 6 11 1 17 -2 13 -5z m-637 -24 c0 -5 -18 -10 -40 -10 -22 0 -40 5
-40 10 0 6 18 10 40 10 22 0 40 -4 40 -10z m478 -47 c-16 -2 -40 -2 -55 0 -16
2 -3 4 27 4 30 0 43 -2 28 -4z m59 1 c-3 -3 -12 -4 -19 -1 -8 3 -5 6 6 6 11 1
17 -2 13 -5z"/>
<path d="M5552 4314 c10 -10 20 -16 22 -13 3 3 -5 11 -17 18 -21 13 -21 12 -5
-5z"/>
<path d="M7868 4310 c-18 -20 -17 -20 75 -20 77 1 89 3 72 13 -11 7 -33 13
-50 14 -16 1 -41 4 -55 7 -17 3 -30 -1 -42 -14z"/>
<path d="M6118 4293 c67 -2 177 -2 245 0 67 1 12 3 -123 3 -135 0 -190 -2
-122 -3z"/>
<path d="M8548 3596 c-28 -21 -33 -67 -10 -94 19 -21 24 -22 227 -22 200 0
208 1 226 22 26 29 24 54 -6 83 -24 25 -25 25 -222 25 -149 -1 -202 -4 -215
-14z m52 -22 c0 -2 -11 -4 -25 -4 -14 0 -25 4 -25 9 0 4 11 6 25 3 14 -2 25
-6 25 -8z m-47 -52 c7 -9 6 -11 -7 -6 -9 3 -16 16 -15 28 0 14 2 16 6 6 3 -8
10 -21 16 -28z"/>
<path d="M7902 3411 c-8 -5 -11 -17 -7 -34 4 -14 2 -34 -5 -44 -9 -15 -10 -13
-5 14 3 17 2 34 -3 37 -11 6 -23 -41 -15 -60 11 -30 71 -34 460 -34 l394 0 24
25 c32 31 31 52 -1 81 l-25 24 -402 0 c-221 0 -408 -4 -415 -9z m421 -8 l-83
-4 0 -39 0 -40 123 -2 c81 -1 33 -4 -143 -10 -146 -5 -280 -7 -298 -3 -29 5
-31 8 -21 26 6 12 8 31 5 43 -3 13 -3 26 1 30 3 3 117 5 252 4 135 -1 209 -4
164 -5z m205 0 c-10 -2 -26 -2 -35 0 -10 3 -2 5 17 5 19 0 27 -2 18 -5z m95 0
c-13 -2 -33 -2 -45 0 -13 2 -3 4 22 4 25 0 35 -2 23 -4z m108 -86 c-10 -9 -11
-8 -5 6 3 10 9 15 12 12 3 -3 0 -11 -7 -18z"/>
</g>
</svg>
