<?xml version="1.0" standalone="no"?>
<!DOCTYPE svg PUBLIC "-//W3C//DTD SVG 20010904//EN"
 "http://www.w3.org/TR/2001/REC-SVG-20010904/DTD/svg10.dtd">
<svg version="1.0" xmlns="http://www.w3.org/2000/svg"
 width="900.000000pt" height="600.000000pt" viewBox="0 0 900.000000 600.000000"
 preserveAspectRatio="xMidYMid meet">

<g transform="translate(0.000000,600.000000) scale(0.100000,-0.100000)"
fill="#000000" stroke="none">
<path d="M2928 5599 c-114 -9 -238 -39 -238 -56 0 -3 153 -161 340 -353 354
-362 400 -412 419 -469 37 -111 7 -162 -237 -403 -188 -186 -201 -197 -257
-213 -54 -16 -62 -16 -110 -1 -28 8 -65 26 -82 39 -17 12 -190 180 -385 371
l-353 348 -12 -43 c-70 -242 -47 -625 52 -864 144 -349 404 -553 808 -636 89
-18 133 -20 421 -18 l321 1 85 -94 c47 -52 114 -127 150 -167 l65 -72 343 340
c188 186 342 343 342 348 0 4 -70 68 -156 142 l-155 134 5 116 c19 392 18 513
-4 626 -65 334 -256 602 -542 759 -233 128 -535 189 -820 165z"/>
<path d="M6276 5589 c-32 -11 -82 -35 -110 -53 -37 -24 -964 -931 -1228 -1201
-3 -3 -64 -30 -135 -59 -112 -47 -130 -58 -147 -88 -32 -57 -19 -79 140 -238
l144 -146 -999 -999 c-550 -549 -1007 -1002 -1015 -1007 -8 -5 -84 -22 -168
-39 -84 -16 -161 -33 -171 -37 -17 -7 -56 -64 -342 -507 -64 -99 -151 -234
-195 -300 l-78 -120 106 -108 c59 -59 112 -105 118 -103 13 5 912 581 922 591
2 2 17 67 33 145 15 78 33 156 38 174 7 26 242 266 1007 1029 550 547 1002
999 1007 1003 4 4 74 -58 155 -139 147 -145 149 -147 193 -147 25 0 53 6 63
13 9 7 42 71 72 142 l55 130 593 595 c326 327 607 615 623 640 127 192 81 466
-110 660 -123 126 -268 190 -424 190 -62 -1 -106 -7 -147 -21z m114 -279 c12
-12 20 -33 20 -53 0 -29 -50 -82 -573 -605 -402 -402 -579 -572 -594 -572 -36
0 -83 47 -83 83 0 29 54 86 570 600 534 530 573 567 605 567 22 0 43 -8 55
-20z m335 -335 c55 -54 74 -32 -548 -653 -484 -484 -577 -572 -600 -572 -35 0
-87 49 -87 82 0 17 139 162 575 596 628 625 604 604 660 547z"/>
<path d="M4720 2862 c-203 -202 -370 -373 -370 -380 0 -10 177 -221 210 -252
3 -3 226 -257 495 -565 269 -308 492 -562 495 -565 3 -3 69 -77 147 -166 154
-175 235 -243 354 -298 105 -49 182 -66 291 -66 172 0 323 60 451 180 167 156
240 350 216 570 -24 215 -130 375 -394 595 -33 28 -62 52 -65 55 -3 3 -36 32
-75 65 -38 33 -160 139 -270 235 -110 96 -247 216 -305 265 -135 116 -134 116
-335 291 -93 82 -224 196 -290 253 -66 57 -132 114 -147 127 -15 13 -30 24
-32 24 -3 0 -172 -165 -376 -368z m1696 -1219 c103 -35 181 -104 228 -202 28
-59 31 -76 31 -156 0 -80 -3 -97 -31 -155 -39 -82 -101 -144 -184 -184 -59
-28 -74 -31 -160 -31 -88 0 -101 3 -162 33 -136 67 -211 187 -211 337 0 166
90 293 251 356 60 23 172 25 238 2z"/>
</g>
</svg>
